<?xml version="1.0" encoding="UTF-8" standalone="no"?>
<svg xmlns:dc="http://purl.org/dc/elements/1.1/" xmlns:cc="http://creativecommons.org/ns#" xmlns:rdf="http://www.w3.org/1999/02/22-rdf-syntax-ns#" xmlns:svg="http://www.w3.org/2000/svg" xmlns="http://www.w3.org/2000/svg" xmlns:sodipodi="http://sodipodi.sourceforge.net/DTD/sodipodi-0.dtd" xmlns:inkscape="http://www.inkscape.org/namespaces/inkscape" viewBox="0 0 700 700" version="1.1" id="svg34" sodipodi:docname="telcel-logo.svg" width="700" height="700" inkscape:version="0.92.4 (5da689c313, 2019-01-14)" inkscape:export-filename="C:\Users\suitedoalex\sites\telcel-logo-0.png" inkscape:export-xdpi="561.73712" inkscape:export-ydpi="561.73712">
  <metadata id="metadata40"></metadata>
  <defs id="defs38"></defs>
  <!-- Generator: Sketch 54.1 (76490) - https://sketchapp.com -->
  <title id="title2">logo-telcel</title>
  <desc id="desc4">Created with Sketch.</desc>
  <g id="logo-telcel" style="fill:#263575;fill-opacity:1;fill-rule:evenodd;stroke:none;stroke-width:1" transform="matrix(5.1056936,0,0,5.1056936,81.192526,288.13358)" inkscape:export-filename="C:\Users\suitedoalex\sites\telcel-logo-4.png" inkscape:export-xdpi="71.504189" inkscape:export-ydpi="71.504189">
    <g id="LOGOTIPO-TELCEL-2019-01" style="fill:#263575;fill-opacity:1;fill-rule:nonzero">
      <path d="m 34.102857,20.165714 0.06857,-0.302857 5.902857,-9.777143 h 3.04 l 1.771428,-2.9885711 h -3.022857 l 2.462857,-4.04 H 40.12 l -2.405714,4.04 h -2.285715 l -1.771428,2.9885711 h 2.228571 L 29.337143,20.942857 C 29.155206,21.235341 29.065599,21.575849 29.08,21.92 c 0.03662,0.992189 0.847171,1.780082 1.84,1.788571 h 4.611429 L 37.325714,20.72 h -2.651428 c -0.309016,1.39e-4 -0.562158,-0.245409 -0.571429,-0.554286 z" id="Path" style="fill:#263575;fill-opacity:1" inkscape:connector-curvature="0"></path>
      <path d="M 52.274286,8 C 50.708571,8 46.822857,8.16 44.8,10.36 c -0.990089,1.041587 -1.915622,2.142685 -2.771429,3.297143 -1.324885,1.822621 -2.424308,3.798896 -3.274285,5.885714 -1.548572,4 4.142857,4.16 4.142857,4.16 h 7.388571 l 2.228572,-3.497143 h -8.571429 c 0,0 -1.52,-0.12 -0.571428,-1.88 0.211428,-0.4 0.462857,-0.84 0.731428,-1.297143 H 54.48 C 54.685714,16.714286 55.891429,14.868571 57.337143,12.2 59.428571,8.4114286 54.028571,8 52.274286,8 Z m 1.491428,4.32 c -0.255948,0.608165 -0.56375,1.19318 -0.92,1.748571 h -6.914285 c 0.496795,-0.773623 1.040678,-1.515975 1.628571,-2.222857 1.046882,-0.988895 2.428544,-1.546049 3.868571,-1.56 1.142858,0 3.005715,0.462857 2.337143,2.011429 z" id="Shape" style="fill:#263575;fill-opacity:1" inkscape:connector-curvature="0"></path>
      <path d="m 88.571429,8 c -1.565715,0 -5.457143,0.16 -7.474286,2.36 -1.003273,1.032859 -1.942183,2.126345 -2.811429,3.274286 -1.318349,1.832021 -2.411894,3.81575 -3.257143,5.908571 -1.554285,4 4.137143,4.16 4.137143,4.16 h 7.428572 l 2.228571,-3.497143 h -8.571428 c 0,0 -1.514286,-0.12 -0.571429,-1.88 0.217143,-0.4 0.462857,-0.84 0.731429,-1.297143 h 10.36 C 90.977143,16.714286 92.188571,14.868571 93.628571,12.2 95.702857,8.4114286 90.285714,8 88.571429,8 Z m 1.485714,4.32 c -0.252692,0.601351 -0.558673,1.178891 -0.914286,1.725714 h -6.914286 c 0.49833,-0.773994 1.044138,-1.516369 1.634286,-2.222857 1.043145,-0.973915 2.412961,-1.52225 3.84,-1.537143 1.142857,0 3,0.462857 2.331429,2.011429 z" id="path8" style="fill:#263575;fill-opacity:1" inkscape:connector-curvature="0"></path>
      <path d="m 65.36,18.92 c 0.595476,-1.437268 1.389905,-2.783758 2.36,-4 1.474286,-1.828571 3.565714,-3.582857 5.811429,-3.582857 h 4.062857 L 79.702857,8 H 74.588571 C 71.965228,8.014789 69.416456,8.8743988 67.32,10.451429 c -1.172138,0.903273 -2.199249,1.980487 -3.045714,3.194285 -1.326303,1.832839 -2.431123,3.816145 -3.291429,5.908572 -1.554286,4 4.137143,4.16 4.137143,4.16 h 6.285714 l 2.2,-3.497143 H 66.32 c 0,0 -1.382857,-0.03429 -0.96,-1.297143 z" id="path10" style="fill:#263575;fill-opacity:1" inkscape:connector-curvature="0"></path>
      <polygon id="polygon12" points="69.034286,3.0571429 64.845714,3.0571429 52.04,23.702857 56.222857,23.702857 " style="fill:#263575;fill-opacity:1"></polygon>
      <polygon id="polygon14" points="105.24,3.0571429 101.05143,3.0571429 88.245714,23.702857 92.428571,23.702857 " style="fill:#263575;fill-opacity:1"></polygon>
      <path d="M 18.148571,4.5257143 H 22.6 L 22.96,4.0514286 H 33.108571 L 33.777143,3.0171429 H 22.091429 l 0.948571,-1.48 h 0.165714 L 23.857143,0.52 h -0.571429 l -0.611428,1.0171429 h 0.182857 l -0.937143,1.48 h -9.485714 l -0.662857,1.0342857 h 6.697142 c -0.102857,0.3314285 -0.182857,0.3028571 -0.32,0.4742857 z" id="path16" style="fill:#263575;fill-opacity:1" inkscape:connector-curvature="0"></path>
      <path d="m 14.451429,9.9257143 h 4 l 0.36,-0.4742857 h 11.005714 l 0.571428,-1.0457143 h -10.76 l 0.348572,-0.4742857 h -4.171429 c -0.114285,0.1657143 -0.217143,0.32 -0.314285,0.4742857 H 9.0914286 L 8.4228571,9.4514286 h 6.3542859 z" id="path18" style="fill:#263575;fill-opacity:1" inkscape:connector-curvature="0"></path>
      <path d="m 15.828571,13.331429 h -3.685714 c -0.108571,0.171428 -0.211428,0.32 -0.314286,0.474285 H 5.7142857 l -0.64,1.051429 H 11.12 l -0.32,0.468571 h 3.485714 l 0.36,-0.468571 h 11.765715 l 0.662857,-1.04 H 15.462857 Z" id="path20" style="fill:#263575;fill-opacity:1" inkscape:connector-curvature="0"></path>
      <path d="m 16.297143,7.2114286 h 4.228571 l 0.36,-0.4742857 H 31.457143 L 32.12,5.7142857 H 21.714286 l 0.354285,-0.4685714 h -4.417142 l -0.32,0.4685714 h -6.594286 l -0.622857,1.0228572 h 6.508571 c -0.114286,0.16 -0.217143,0.32 -0.325714,0.4742857 z" id="path22" style="fill:#263575;fill-opacity:1" inkscape:connector-curvature="0"></path>
      <path d="m 16.668571,21.434286 h -1.525714 l 0.485714,0.468571 H 0.70285714 L 0.05714286,22.954286 H 16.72 L 17.422857,23.622857 17.84,22.954286 h 3.554286 l 0.668571,-1.051429 H 17.091429 C 16.96,21.771429 16.817143,21.605714 16.668571,21.434286 Z" id="path24" style="fill:#263575;fill-opacity:1" inkscape:connector-curvature="0"></path>
      <path d="m 14.342857,18.76 h -2.011428 l 0.497142,0.462857 H 2.3885714 L 1.7142857,20.251429 H 13.891429 l 0.491428,0.457142 h 1.645714 l -0.4,-0.457142 h 7.428572 L 23.72,19.222857 H 14.737143 C 14.611429,19.062857 14.48,18.914286 14.342857,18.76 Z" id="path26" style="fill:#263575;fill-opacity:1" inkscape:connector-curvature="0"></path>
      <path d="m 13.765714,16.04 h -3.48 L 9.9714286,16.508571 H 4.0571429 L 3.3885714,17.56 h 7.7028576 l 0.491428,0.462857 h 2.251429 C 13.759987,17.874184 13.698802,17.719311 13.651429,17.56 h 11.074285 l 0.668572,-1.051429 h -11.8 c 0.03639,-0.163019 0.09403,-0.320555 0.171428,-0.468571 z" id="path28" style="fill:#263575;fill-opacity:1" inkscape:connector-curvature="0"></path>
      <path d="M 17.902857,10.645714 H 13.96 l -0.308571,0.468572 H 7.4285714 l -0.6514285,1.04 h 6.1714281 c -0.102857,0.171428 -0.211428,0.32 -0.308571,0.474285 h 3.742857 l 0.36,-0.474285 H 28.12 l 0.571429,-1.04 H 17.548571 Z" id="path30" style="fill:#263575;fill-opacity:1" inkscape:connector-curvature="0"></path>
    </g>
  </g>
</svg>
